<svg width="24" height="24" viewBox="0 0 24 24" fill="none" xmlns="http://www.w3.org/2000/svg">
<path d="M16.2002 2.25C17.0277 2.25 17.6936 2.24904 18.2314 2.29297C18.778 2.33762 19.258 2.43291 19.7021 2.65918C20.4077 3.01869 20.9813 3.59227 21.3408 4.29785C21.5671 4.74205 21.6624 5.22195 21.707 5.76855C21.751 6.30638 21.75 6.97222 21.75 7.7998V13.2002C21.75 14.0278 21.751 14.6936 21.707 15.2314C21.6624 15.7781 21.5671 16.258 21.3408 16.7021C20.9813 17.4077 20.4077 17.9813 19.7021 18.3408C19.258 18.5671 18.778 18.6624 18.2314 18.707C17.6936 18.751 17.0277 18.75 16.2002 18.75H13.6836C13.0297 18.75 12.8062 18.7535 12.5996 18.7959C12.4012 18.8367 12.2087 18.9039 12.0283 18.9961C11.8406 19.092 11.6638 19.2293 11.1533 19.6377L8.76855 21.5459C8.57236 21.7029 8.38467 21.8535 8.22363 21.96C8.07407 22.0588 7.82053 22.2096 7.50098 22.21C7.1205 22.2102 6.76082 22.0366 6.52344 21.7393C6.32409 21.4895 6.28282 21.1981 6.2666 21.0195C6.24918 20.8273 6.25 20.5871 6.25 20.3359V18.7451C5.75777 18.7379 5.3729 18.7141 5.0293 18.6221C3.7354 18.2753 2.7247 17.2646 2.37793 15.9707C2.24372 15.4698 2.25 14.8817 2.25 14V7.7998C2.25 6.97223 2.24903 6.30638 2.29297 5.76855C2.33763 5.22197 2.43288 4.74204 2.65918 4.29785C3.01869 3.59228 3.5923 3.01871 4.29785 2.65918C4.74201 2.43288 5.222 2.33763 5.76855 2.29297C6.30635 2.24903 6.97229 2.25 7.7998 2.25H16.2002Z" fill="#333333"/>
</svg>
