<svg width="24" height="24" viewBox="0 0 24 24" fill="none" xmlns="http://www.w3.org/2000/svg">
<path d="M16.1221 17.9971C16.8124 17.9971 17.3721 18.5567 17.3721 19.2471C17.3721 19.9374 16.8124 20.4971 16.1221 20.4971H7.87695C7.1866 20.4971 6.62695 19.9374 6.62695 19.2471C6.62695 18.5567 7.1866 17.9971 7.87695 17.9971H16.1221ZM20.2451 13.165C20.9355 13.165 21.4951 13.7247 21.4951 14.415C21.4951 15.1054 20.9355 15.665 20.2451 15.665H3.75391C3.06355 15.665 2.50391 15.1054 2.50391 14.415C2.50391 13.7247 3.06355 13.165 3.75391 13.165H20.2451ZM16.1221 8.33496C16.8124 8.33496 17.3721 8.89461 17.3721 9.58496C17.3721 10.2753 16.8124 10.835 16.1221 10.835H7.87695C7.1866 10.835 6.62695 10.2753 6.62695 9.58496C6.62695 8.89461 7.1866 8.33496 7.87695 8.33496H16.1221ZM20.2451 3.50293C20.9355 3.50293 21.4951 4.06257 21.4951 4.75293C21.4951 5.44329 20.9355 6.00293 20.2451 6.00293H3.75391C3.06355 6.00293 2.50391 5.44329 2.50391 4.75293C2.50391 4.06257 3.06355 3.50293 3.75391 3.50293H20.2451Z" fill="#333333"/>
</svg>
