<svg width="24" height="24" viewBox="0 0 24 24" fill="none" xmlns="http://www.w3.org/2000/svg">
<path fill-rule="evenodd" clip-rule="evenodd" d="M20.0559 5.71152C20.544 5.22336 20.544 4.43191 20.0559 3.94375C19.5677 3.4556 18.7762 3.4556 18.2881 3.94375L11.9996 10.2323L5.71103 3.94375C5.22288 3.4556 4.43142 3.4556 3.94326 3.94375C3.45511 4.43191 3.45511 5.22336 3.94326 5.71152L10.2318 12.0001L3.94326 18.2886C3.45511 18.7767 3.45511 19.5682 3.94326 20.0563C4.43142 20.5445 5.22288 20.5445 5.71103 20.0563L11.9996 13.7678L18.2881 20.0563C18.7762 20.5445 19.5677 20.5445 20.0559 20.0563C20.544 19.5682 20.544 18.7767 20.0559 18.2886L13.7673 12.0001L20.0559 5.71152Z" fill="#333333"/>
</svg>
