<svg width="24" height="24" viewBox="0 0 24 24" fill="none" xmlns="http://www.w3.org/2000/svg">
<path d="M12.7793 2.72876C12.9291 2.05496 13.5976 1.6298 14.2715 1.77954C14.9452 1.92945 15.3704 2.59793 15.2207 3.27173L11.2207 21.2717C11.0708 21.9453 10.4022 22.3706 9.72852 22.2209C9.05479 22.0711 8.6297 21.4025 8.7793 20.7288L12.7793 2.72876ZM6.11621 6.11646C6.60437 5.6283 7.39563 5.6283 7.88379 6.11646C8.37177 6.60462 8.37189 7.39594 7.88379 7.88403L3.76758 12.0002L7.88379 16.1165C8.37177 16.6046 8.37189 17.3959 7.88379 17.884C7.39569 18.372 6.60435 18.372 6.11621 17.884L1.11621 12.884C0.628083 12.3959 0.628137 11.6046 1.11621 11.1165L6.11621 6.11646ZM16.1162 6.11646C16.6044 5.6283 17.3956 5.6283 17.8838 6.11646L22.8838 11.1165C23.3718 11.6046 23.3719 12.3959 22.8838 12.884L17.8838 17.884C17.3957 18.372 16.6044 18.372 16.1162 17.884C15.6281 17.3959 15.6281 16.6046 16.1162 16.1165L20.2324 12.0002L16.1162 7.88403C15.6281 7.39591 15.6281 6.60462 16.1162 6.11646Z" fill="white"/>
</svg>
