<svg width="14" height="9" viewBox="0 0 14 9" fill="none" xmlns="http://www.w3.org/2000/svg">
<path fill-rule="evenodd" clip-rule="evenodd" d="M7.00024 3.05174e-07C9.93197 3.05174e-07 12.471 2.26319 13.5977 3.46878L13.6001 3.47128C14.1332 4.04879 14.1332 4.9519 13.6007 5.53L13.5983 5.5325C12.471 6.73748 9.93196 9 7.00023 9C4.0685 9 1.52946 6.73745 0.402192 5.53186L0.40036 5.52936C-0.133351 4.95185 -0.133352 4.04874 0.399749 3.47064L0.402192 3.46814C1.52944 2.26316 4.06851 3.05174e-07 7.00024 3.05174e-07ZM7.00024 1.99999C5.65254 1.99999 4.55766 3.11999 4.55766 4.49998C4.55766 5.87997 5.65254 6.99997 7.00024 6.99997C8.34794 6.99997 9.44283 5.87997 9.44283 4.49998C9.44283 3.11999 8.34794 1.99999 7.00024 1.99999ZM7.00024 2.99999C7.80874 2.99999 8.4658 3.67248 8.4658 4.49998C8.4658 5.3281 7.80874 5.99997 7.00024 5.99997C6.19174 5.99997 5.53469 5.3281 5.53469 4.49998C5.53469 3.67248 6.19174 2.99999 7.00024 2.99999Z" fill="#333333"/>
</svg>
