<svg width="24" height="24" viewBox="0 0 24 24" fill="none" xmlns="http://www.w3.org/2000/svg">
<path fill-rule="evenodd" clip-rule="evenodd" d="M14.5488 3.52378C13.0947 2.29776 10.9702 2.29266 9.51021 3.51168L1.23124 10.4242C0.91329 10.6897 0.870748 11.1627 1.13622 11.4806C1.4017 11.7986 1.87467 11.8411 2.19262 11.5756L3.83545 10.204V18.1531C3.83545 19.7343 5.11726 21.0161 6.69845 21.0161H9.05788C9.47209 21.0161 9.80788 20.6803 9.80788 20.2661V15.938C9.80788 14.8759 10.657 13.7649 11.9809 13.7649C13.3049 13.7649 14.154 14.8759 14.154 15.938V20.2661C14.154 20.6803 14.4898 21.0161 14.904 21.0161H17.2634C18.8446 21.0161 20.1264 19.7343 20.1264 18.1531V10.1885L21.7689 11.5733C22.0856 11.8403 22.5587 11.8 22.8257 11.4834C23.0927 11.1667 23.0524 10.6935 22.7358 10.4265L14.5488 3.52378Z" fill="#333333"/>
</svg>
