<svg width="24" height="24" viewBox="0 0 24 24" fill="none" xmlns="http://www.w3.org/2000/svg">
<path fill-rule="evenodd" clip-rule="evenodd" d="M11.9996 0.914062C12.4138 0.914062 12.7496 1.24985 12.7496 1.66406V2.7098C12.7496 3.12401 12.4138 3.4598 11.9996 3.4598C11.5853 3.4598 11.2496 3.12401 11.2496 2.7098V1.66406C11.2496 1.24985 11.5853 0.914062 11.9996 0.914062ZM3.66759 4.87913C3.91746 4.54877 4.38783 4.48352 4.71819 4.73339L5.55222 5.36423C5.88258 5.6141 5.94783 6.08447 5.69795 6.41483C5.44808 6.74519 4.97771 6.81043 4.64735 6.56056L3.81332 5.92973C3.48296 5.67986 3.41771 5.20949 3.66759 4.87913ZM20.3315 4.87913C20.5814 5.20949 20.5162 5.67986 20.1858 5.92973L19.3518 6.56056C19.0214 6.81043 18.551 6.74519 18.3012 6.41483C18.0513 6.08447 18.1165 5.6141 18.4469 5.36423L19.2809 4.73339C19.6113 4.48352 20.0817 4.54877 20.3315 4.87913ZM5.7524 11.2861C5.7524 7.83589 8.54938 5.03891 11.9996 5.03891C15.4499 5.03891 18.2468 7.83589 18.2468 11.2861C18.2468 13.5043 17.0906 15.4514 15.3507 16.5593V18.5726C15.3507 20.1419 14.0785 21.4141 12.5092 21.4141H11.4901C9.92076 21.4141 8.64859 20.1419 8.64859 18.5726V16.5593C6.90872 15.4515 5.7524 13.5043 5.7524 11.2861ZM1.60547 10.9924C1.60547 10.5782 1.94126 10.2424 2.35547 10.2424H3.4012C3.81542 10.2424 4.1512 10.5782 4.1512 10.9924C4.1512 11.4066 3.81542 11.7424 3.4012 11.7424H2.35547C1.94126 11.7424 1.60547 11.4066 1.60547 10.9924ZM19.8479 10.9924C19.8479 10.5782 20.1837 10.2424 20.5979 10.2424H21.6436C22.0578 10.2424 22.3936 10.5782 22.3936 10.9924C22.3936 11.4066 22.0578 11.7424 21.6436 11.7424H20.5979C20.1837 11.7424 19.8479 11.4066 19.8479 10.9924ZM5.698 16.1338C5.94788 16.4641 5.88263 16.9345 5.55227 17.1844L4.88504 17.689C4.55468 17.9389 4.08431 17.8736 3.83444 17.5433C3.58457 17.2129 3.64982 16.7426 3.98018 16.4927L4.6474 15.988C4.97776 15.7381 5.44813 15.8034 5.698 16.1338ZM18.3012 16.1338C18.551 15.8034 19.0214 15.7381 19.3518 15.988L20.019 16.4927C20.3493 16.7426 20.4146 17.2129 20.1647 17.5433C19.9149 17.8736 19.4445 17.9389 19.1141 17.689L18.4469 17.1844C18.1165 16.9345 18.0513 16.4641 18.3012 16.1338Z" fill="white"/>
</svg>
