<svg width="18" height="18" viewBox="0 0 18 18" fill="none" xmlns="http://www.w3.org/2000/svg">
<path d="M17.6702 14.2718L13.4862 11.66C13.2045 11.4845 12.8452 11.5267 12.6128 11.7583L11.204 13.1625C8.73155 11.4845 6.6044 9.3151 4.8645 6.6964L6.20284 5.36948C6.43528 5.13781 6.47757 4.77973 6.30146 4.4989L3.68113 0.32866C3.56842 0.146119 3.37823 0.0267539 3.15988 0.00570275C2.94856 -0.0223804 2.73724 0.0548483 2.58228 0.202285L1.13124 1.6556C-0.0380517 2.82105 -0.333896 4.6113 0.39867 6.10668C0.405714 6.12072 0.43389 6.16986 0.43389 6.17688L0.52546 6.34538C0.659294 6.62622 0.814249 6.89301 0.955127 7.13872C1.03965 7.30722 1.13122 7.46871 1.21574 7.59506C1.39888 7.91802 1.59611 8.24098 1.78628 8.54989C3.78675 11.7374 6.32954 14.3211 9.33735 16.2308C10.1615 16.7503 10.9997 17.2137 11.8238 17.6068C11.9647 17.677 12.0915 17.7262 12.2464 17.7824C12.6761 17.9298 13.1128 18 13.5495 18C14.5568 18 15.5359 17.6068 16.2756 16.8697L17.79 15.3602C17.945 15.2127 18.0225 15.0021 17.9943 14.7845C17.9732 14.5738 17.8533 14.3841 17.6702 14.2718Z" fill="#020D26"/>
<path d="M8.99931 0.133591C8.61013 0.133591 8.29492 0.447763 8.29492 0.835671C8.29492 1.22358 8.61013 1.53775 8.99931 1.53775C13.1851 1.53775 16.5909 4.93222 16.5909 9.10449C16.5909 9.4924 16.9062 9.80657 17.2953 9.80657C17.6845 9.80657 17.9997 9.4924 17.9997 9.10449C17.9997 4.15735 13.9618 0.133591 8.99931 0.133591Z" fill="#020D26"/>
<path d="M13.135 9.10447C13.135 9.49238 13.4502 9.80655 13.8394 9.80655C14.2286 9.80655 14.5438 9.49238 14.5438 9.10447C14.5438 6.05756 12.0565 3.57815 8.99931 3.57815C8.61013 3.57815 8.29492 3.89232 8.29492 4.28023C8.29492 4.66814 8.61013 4.98231 8.99931 4.98231C11.2797 4.98231 13.135 6.83054 13.135 9.10447Z" fill="#020D26"/>
</svg>
