<svg width="24" height="24" viewBox="0 0 24 24" fill="none" xmlns="http://www.w3.org/2000/svg">
<path d="M20.6702 17.2718L16.4862 14.66C16.2045 14.4845 15.8452 14.5267 15.6128 14.7583L14.204 16.1625C11.7315 14.4845 9.6044 12.3151 7.8645 9.6964L9.20284 8.36948C9.43528 8.13781 9.47757 7.77973 9.30146 7.4989L6.68113 3.32866C6.56842 3.14612 6.37823 3.02675 6.15988 3.0057C5.94856 2.97762 5.73724 3.05485 5.58228 3.20229L4.13124 4.6556C2.96195 5.82105 2.6661 7.6113 3.39867 9.10668C3.40571 9.12072 3.43389 9.16986 3.43389 9.17688L3.52546 9.34538C3.65929 9.62622 3.81425 9.89301 3.95513 10.1387C4.03965 10.3072 4.13122 10.4687 4.21574 10.5951C4.39888 10.918 4.59611 11.241 4.78628 11.5499C6.78675 14.7374 9.32954 17.3211 12.3373 19.2308C13.1615 19.7503 13.9997 20.2137 14.8238 20.6068C14.9647 20.677 15.0915 20.7262 15.2464 20.7824C15.6761 20.9298 16.1128 21 16.5495 21C17.5568 21 18.5359 20.6068 19.2756 19.8697L20.79 18.3602C20.945 18.2127 21.0225 18.0021 20.9943 17.7845C20.9732 17.5738 20.8533 17.3841 20.6702 17.2718Z" fill="white"/>
<path d="M11.9993 3.13359C11.6101 3.13359 11.2949 3.44776 11.2949 3.83567C11.2949 4.22358 11.6101 4.53775 11.9993 4.53775C16.1851 4.53775 19.5909 7.93222 19.5909 12.1045C19.5909 12.4924 19.9062 12.8066 20.2953 12.8066C20.6845 12.8066 20.9997 12.4924 20.9997 12.1045C20.9997 7.15735 16.9618 3.13359 11.9993 3.13359Z" fill="white"/>
<path d="M16.135 12.1045C16.135 12.4924 16.4502 12.8066 16.8394 12.8066C17.2286 12.8066 17.5438 12.4924 17.5438 12.1045C17.5438 9.05756 15.0565 6.57815 11.9993 6.57815C11.6101 6.57815 11.2949 6.89232 11.2949 7.28023C11.2949 7.66814 11.6101 7.98231 11.9993 7.98231C14.2797 7.98231 16.135 9.83054 16.135 12.1045Z" fill="white"/>
</svg>
