<svg width="24" height="24" viewBox="0 0 24 24" fill="none" xmlns="http://www.w3.org/2000/svg">
<path d="M19.6218 11.579L14.3548 6.31289C14.2363 6.18819 14.094 6.08847 13.9363 6.0196C13.7786 5.95073 13.6088 5.91411 13.4367 5.91188C13.2647 5.90966 13.0939 5.94188 12.9345 6.00665C12.7751 6.07141 12.6303 6.16742 12.5086 6.28901C12.3869 6.4106 12.2907 6.55531 12.2258 6.71463C12.1609 6.87394 12.1285 7.04464 12.1306 7.21665C12.1327 7.38867 12.1692 7.55853 12.2379 7.71624C12.3066 7.87394 12.4062 8.01629 12.5309 8.13491L15.6443 11.2431H5.28955C4.94754 11.2431 4.61954 11.3789 4.3777 11.6207C4.13586 11.8625 4 12.1904 4 12.5324C4 12.8744 4.13586 13.2023 4.3777 13.4441C4.61954 13.6859 4.94754 13.8217 5.28955 13.8217H15.6155L12.5309 16.9107C12.2991 17.1545 12.1718 17.4792 12.1762 17.8156C12.1805 18.1519 12.3162 18.4733 12.5542 18.711C12.7922 18.9488 13.1137 19.0841 13.4501 19.0882C13.7865 19.0922 14.1111 18.9647 14.3548 18.7327L19.6218 13.4666C19.742 13.3472 19.8372 13.2051 19.902 13.0486C19.9668 12.892 19.9999 12.7242 19.9994 12.5548C20.0002 12.5441 20.0002 12.5335 19.9994 12.5228C20.0001 12.5122 20.0001 12.5015 19.9994 12.4908C19.9993 12.1489 19.8635 11.8209 19.6218 11.579Z" fill="#1552FD"/>
</svg>
