<svg width="24" height="24" viewBox="0 0 24 24" fill="none" xmlns="http://www.w3.org/2000/svg">
<path fill-rule="evenodd" clip-rule="evenodd" d="M18.552 5.052C18.552 3.67129 19.6713 2.552 21.052 2.552C22.4327 2.552 23.552 3.67129 23.552 5.052C23.552 6.43271 22.4327 7.552 21.052 7.552C20.8866 7.552 20.7249 7.53593 20.5684 7.50526L16.9929 13.2263C17.3424 13.6563 17.5519 14.2047 17.5519 14.802C17.5519 16.1827 16.4326 17.302 15.0519 17.302C13.6712 17.302 12.5519 16.1827 12.5519 14.802C12.5519 14.4515 12.624 14.1178 12.7543 13.815L10.2084 11.2691C9.86257 11.4498 9.46922 11.552 9.052 11.552C8.80879 11.552 8.5737 11.5173 8.3514 11.4525L4.84524 17.0623C5.28136 17.5124 5.5498 18.1258 5.5498 18.802C5.5498 20.1827 4.43052 21.302 3.0498 21.302C1.66909 21.302 0.549805 20.1827 0.549805 18.802C0.549805 17.4213 1.66909 16.302 3.0498 16.302C3.21178 16.302 3.37016 16.3174 3.52356 16.3468L7.10368 10.6187C6.75856 10.19 6.552 9.64514 6.552 9.052C6.552 7.67129 7.67129 6.552 9.052 6.552C10.4327 6.552 11.552 7.67129 11.552 9.052C11.552 9.46924 11.4498 9.8626 11.269 10.2084L13.7363 12.6757C14.1185 12.4388 14.5692 12.302 15.0519 12.302C15.2911 12.302 15.5224 12.3356 15.7415 12.3983L19.2499 6.78472C18.8177 6.33535 18.552 5.7247 18.552 5.052Z" fill="white"/>
</svg>
