<svg width="24" height="24" viewBox="0 0 24 24" fill="none" xmlns="http://www.w3.org/2000/svg">
<path fill-rule="evenodd" clip-rule="evenodd" d="M14.5 5.5C14.5 3.70507 15.9551 2.25 17.75 2.25C19.5449 2.25 21 3.70507 21 5.5C21 7.29493 19.5449 8.75 17.75 8.75C16.7226 8.75 15.8066 8.27327 15.211 7.52896L9.30956 10.9012C9.43283 11.2444 9.5 11.6144 9.5 12C9.5 12.3856 9.43283 12.7556 9.30956 13.0988L15.211 16.471C15.8066 15.7267 16.7226 15.25 17.75 15.25C19.5449 15.25 21 16.7051 21 18.5C21 20.2949 19.5449 21.75 17.75 21.75C15.9551 21.75 14.5 20.2949 14.5 18.5C14.5 18.2709 14.5237 18.0474 14.5688 17.8317L8.48781 14.3568C7.90505 14.9104 7.11719 15.25 6.25 15.25C4.45507 15.25 3 13.7949 3 12C3 10.2051 4.45507 8.75 6.25 8.75C7.11719 8.75 7.90505 9.08964 8.48781 9.64315L14.5688 6.16831C14.5237 5.95262 14.5 5.72908 14.5 5.5Z" fill="white"/>
</svg>
