<svg width="24" height="24" viewBox="0 0 24 24" fill="none" xmlns="http://www.w3.org/2000/svg">
<path d="M12 21C16.9697 21 21 16.9697 21 12C21 7.03114 16.9697 3 12 3C7.03114 3 3 7.03114 3 12C3 16.9697 7.03114 21 12 21ZM11.3573 6.85672C11.3573 6.50332 11.6466 6.21403 12 6.21403C12.3534 6.21403 12.6427 6.50332 12.6427 6.85672V11.6916L15.6162 14.0701C15.8931 14.292 15.9375 14.6971 15.7156 14.9733C15.5907 15.1311 15.4041 15.2141 15.2143 15.2141C15.0729 15.2141 14.9316 15.1697 14.8124 15.0727L11.5982 12.5011C11.4478 12.3794 11.3574 12.1962 11.3574 11.9998L11.3573 6.85672Z" fill="#1552FD"/>
</svg>
