<svg width="200" height="200" viewBox="0 0 200 200" fill="none" xmlns="http://www.w3.org/2000/svg">
<rect x="2.77295" y="2.77283" width="194.454" height="194.454" rx="72" fill="white"/>
<g clip-path="url(#clip0_2038_375)">
<path d="M46.9861 98.8166C46.9861 101.257 48.9647 103.236 51.4055 103.236L64.6638 103.236C67.1045 103.236 69.0832 101.257 69.0832 98.8166L69.0832 88.3495C69.0832 86.5914 69.7816 84.9052 71.0248 83.662L83.8842 70.8027C85.1274 69.5595 86.8135 68.861 88.5717 68.861L99.0388 68.861C101.48 68.861 103.458 66.8824 103.458 64.4416L103.458 51.1834C103.458 48.7426 101.48 46.7639 99.0388 46.7639L85.7805 46.7639C83.3397 46.7639 81.3611 48.7426 81.3611 51.1834L81.3611 61.2049C81.3611 62.963 80.6627 64.6492 79.4195 65.8924L66.1145 79.1973C64.8713 80.4405 63.1852 81.1389 61.427 81.1389L51.4055 81.1389C48.9647 81.1389 46.9861 83.1176 46.9861 85.5584L46.9861 98.8166Z" fill="#1552FD"/>
<path d="M118.593 76.6734C118.593 79.1142 120.572 81.0928 123.012 81.0928L145.109 81.0928C147.55 81.0928 149.529 79.1142 149.529 76.6734L149.529 54.5763C149.529 52.1355 147.55 50.1569 145.109 50.1569L123.012 50.1569C120.572 50.1569 118.593 52.1355 118.593 54.5763L118.593 76.6734Z" fill="#1552FD"/>
<path d="M101.406 153.236C98.9647 153.236 96.9861 151.257 96.9861 148.817L96.9861 135.558C96.9861 133.118 98.9647 131.139 101.406 131.139L111.427 131.139C113.185 131.139 114.871 130.441 116.115 129.197L129.419 115.892C130.663 114.649 131.361 112.963 131.361 111.205L131.361 101.183C131.361 98.7426 133.34 96.7639 135.781 96.764L149.039 96.7639C151.48 96.764 153.458 98.7426 153.458 101.183L153.458 114.442C153.458 116.882 151.48 118.861 149.039 118.861L138.572 118.861C136.814 118.861 135.127 119.559 133.884 120.803L121.025 133.662C119.782 134.905 119.083 136.591 119.083 138.35L119.083 148.817C119.083 151.257 117.105 153.236 114.664 153.236L101.406 153.236Z" fill="#1552FD"/>
<path d="M49.843 145.424C49.843 147.864 51.8216 149.843 54.2624 149.843L76.3595 149.843C78.8003 149.843 80.7789 147.864 80.7789 145.424L80.7789 126.655C80.7789 124.897 81.4773 123.21 82.7206 121.967L87.144 117.544C88.3872 116.301 90.0734 115.602 91.8315 115.602L110.915 115.602C113.355 115.602 115.334 113.623 115.334 111.183L115.334 89.0856C115.334 86.6448 113.355 84.6662 110.915 84.6662L88.8176 84.6662C86.3768 84.6662 84.3982 86.6448 84.3982 89.0856L84.3982 108.169C84.3982 109.927 83.6997 111.613 82.4565 112.856L78.3474 116.965C77.1042 118.209 75.418 118.907 73.6599 118.907L54.2624 118.907C51.8216 118.907 49.843 120.886 49.843 123.326L49.843 145.424Z" fill="#1552FD"/>
</g>
<defs>
<clipPath id="clip0_2038_375">
<rect y="100" width="141.421" height="141.421" rx="70.7107" transform="rotate(-45 0 100)" fill="white"/>
</clipPath>
</defs>
</svg>
