<svg width="221" height="49" viewBox="0 0 221 49" fill="none" xmlns="http://www.w3.org/2000/svg">
<path d="M75.55 33L70.6 16.77L74.59 16.8L77.53 26.46L80.515 16.8H83.905L86.89 26.46L89.83 16.8H93.82L88.87 33H85.75L82.21 22.44L78.67 33H75.55ZM102.578 33.45C100.918 33.45 99.4527 33.095 98.1827 32.385C96.9227 31.665 95.9327 30.68 95.2127 29.43C94.5027 28.17 94.1477 26.73 94.1477 25.11C94.1477 23.34 94.4977 21.8 95.1977 20.49C95.8977 19.18 96.8627 18.165 98.0927 17.445C99.3227 16.715 100.738 16.35 102.338 16.35C104.038 16.35 105.483 16.75 106.673 17.55C107.863 18.35 108.743 19.475 109.313 20.925C109.883 22.375 110.083 24.08 109.913 26.04H105.878V24.54C105.878 22.89 105.613 21.705 105.083 20.985C104.563 20.255 103.708 19.89 102.518 19.89C101.128 19.89 100.103 20.315 99.4427 21.165C98.7927 22.005 98.4677 23.25 98.4677 24.9C98.4677 26.41 98.7927 27.58 99.4427 28.41C100.103 29.23 101.068 29.64 102.338 29.64C103.138 29.64 103.823 29.465 104.393 29.115C104.963 28.765 105.398 28.26 105.698 27.6L109.778 28.77C109.168 30.25 108.203 31.4 106.883 32.22C105.573 33.04 104.138 33.45 102.578 33.45ZM97.2077 26.04V23.01H107.948V26.04H97.2077ZM120.35 33.45C118.74 33.45 117.395 33.075 116.315 32.325C115.235 31.575 114.42 30.555 113.87 29.265C113.33 27.975 113.06 26.52 113.06 24.9C113.06 23.28 113.33 21.825 113.87 20.535C114.41 19.245 115.205 18.225 116.255 17.475C117.305 16.725 118.6 16.35 120.14 16.35C121.69 16.35 123.04 16.72 124.19 17.46C125.34 18.2 126.23 19.215 126.86 20.505C127.5 21.785 127.82 23.25 127.82 24.9C127.82 26.52 127.505 27.975 126.875 29.265C126.255 30.555 125.385 31.575 124.265 32.325C123.145 33.075 121.84 33.45 120.35 33.45ZM112.37 33V11.4H116.48V21.9H115.97V33H112.37ZM119.69 29.82C120.57 29.82 121.29 29.6 121.85 29.16C122.41 28.72 122.825 28.13 123.095 27.39C123.365 26.64 123.5 25.81 123.5 24.9C123.5 24 123.36 23.18 123.08 22.44C122.8 21.69 122.365 21.095 121.775 20.655C121.195 20.205 120.45 19.98 119.54 19.98C118.69 19.98 118 20.185 117.47 20.595C116.95 21.005 116.57 21.58 116.33 22.32C116.09 23.06 115.97 23.92 115.97 24.9C115.97 25.88 116.09 26.74 116.33 27.48C116.57 28.22 116.96 28.795 117.5 29.205C118.05 29.615 118.78 29.82 119.69 29.82ZM141.26 33V25.35C141.26 24.98 141.24 24.51 141.2 23.94C141.16 23.36 141.035 22.78 140.825 22.2C140.615 21.62 140.27 21.135 139.79 20.745C139.32 20.355 138.65 20.16 137.78 20.16C137.43 20.16 137.055 20.215 136.655 20.325C136.255 20.435 135.88 20.65 135.53 20.97C135.18 21.28 134.89 21.74 134.66 22.35C134.44 22.96 134.33 23.77 134.33 24.78L131.99 23.67C131.99 22.39 132.25 21.19 132.77 20.07C133.29 18.95 134.07 18.045 135.11 17.355C136.16 16.665 137.48 16.32 139.07 16.32C140.34 16.32 141.375 16.535 142.175 16.965C142.975 17.395 143.595 17.94 144.035 18.6C144.485 19.26 144.805 19.95 144.995 20.67C145.185 21.38 145.3 22.03 145.34 22.62C145.38 23.21 145.4 23.64 145.4 23.91V33H141.26ZM130.19 33V16.8H133.82V22.17H134.33V33H130.19ZM155.39 33.45C153.76 33.45 152.33 33.085 151.1 32.355C149.87 31.625 148.91 30.62 148.22 29.34C147.54 28.05 147.2 26.57 147.2 24.9C147.2 23.21 147.55 21.725 148.25 20.445C148.95 19.155 149.915 18.15 151.145 17.43C152.375 16.71 153.79 16.35 155.39 16.35C157.02 16.35 158.45 16.715 159.68 17.445C160.92 18.175 161.885 19.185 162.575 20.475C163.265 21.755 163.61 23.23 163.61 24.9C163.61 26.58 163.26 28.065 162.56 29.355C161.87 30.635 160.905 31.64 159.665 32.37C158.435 33.09 157.01 33.45 155.39 33.45ZM155.39 29.64C156.7 29.64 157.675 29.2 158.315 28.32C158.965 27.43 159.29 26.29 159.29 24.9C159.29 23.46 158.96 22.31 158.3 21.45C157.65 20.59 156.68 20.16 155.39 20.16C154.5 20.16 153.77 20.36 153.2 20.76C152.63 21.16 152.205 21.715 151.925 22.425C151.655 23.135 151.52 23.96 151.52 24.9C151.52 26.35 151.845 27.505 152.495 28.365C153.155 29.215 154.12 29.64 155.39 29.64ZM175.728 33C174.608 33.21 173.508 33.3 172.428 33.27C171.358 33.25 170.398 33.065 169.548 32.715C168.708 32.355 168.068 31.78 167.628 30.99C167.228 30.25 167.018 29.5 166.998 28.74C166.978 27.97 166.968 27.1 166.968 26.13V12.3H171.048V25.89C171.048 26.52 171.053 27.09 171.063 27.6C171.083 28.1 171.188 28.5 171.378 28.8C171.738 29.37 172.313 29.68 173.103 29.73C173.893 29.78 174.768 29.74 175.728 29.61V33ZM164.208 19.95V16.8H175.728V19.95H164.208ZM185.089 33.45C183.429 33.45 181.964 33.095 180.694 32.385C179.434 31.665 178.444 30.68 177.724 29.43C177.014 28.17 176.659 26.73 176.659 25.11C176.659 23.34 177.009 21.8 177.709 20.49C178.409 19.18 179.374 18.165 180.604 17.445C181.834 16.715 183.249 16.35 184.849 16.35C186.549 16.35 187.994 16.75 189.184 17.55C190.374 18.35 191.254 19.475 191.824 20.925C192.394 22.375 192.594 24.08 192.424 26.04H188.389V24.54C188.389 22.89 188.124 21.705 187.594 20.985C187.074 20.255 186.219 19.89 185.029 19.89C183.639 19.89 182.614 20.315 181.954 21.165C181.304 22.005 180.979 23.25 180.979 24.9C180.979 26.41 181.304 27.58 181.954 28.41C182.614 29.23 183.579 29.64 184.849 29.64C185.649 29.64 186.334 29.465 186.904 29.115C187.474 28.765 187.909 28.26 188.209 27.6L192.289 28.77C191.679 30.25 190.714 31.4 189.394 32.22C188.084 33.04 186.649 33.45 185.089 33.45ZM179.719 26.04V23.01H190.459V26.04H179.719ZM201.241 33.45C199.201 33.45 197.551 32.99 196.291 32.07C195.041 31.14 194.281 29.83 194.011 28.14L198.181 27.51C198.351 28.27 198.726 28.865 199.306 29.295C199.896 29.725 200.641 29.94 201.541 29.94C202.281 29.94 202.851 29.8 203.251 29.52C203.651 29.23 203.851 28.83 203.851 28.32C203.851 28 203.771 27.745 203.611 27.555C203.451 27.355 203.091 27.16 202.531 26.97C201.981 26.78 201.121 26.53 199.951 26.22C198.631 25.88 197.576 25.5 196.786 25.08C195.996 24.66 195.426 24.16 195.076 23.58C194.726 22.99 194.551 22.28 194.551 21.45C194.551 20.41 194.816 19.51 195.346 18.75C195.876 17.98 196.621 17.39 197.581 16.98C198.551 16.56 199.691 16.35 201.001 16.35C202.271 16.35 203.396 16.545 204.376 16.935C205.356 17.325 206.146 17.88 206.746 18.6C207.356 19.32 207.731 20.17 207.871 21.15L203.701 21.9C203.631 21.3 203.371 20.825 202.921 20.475C202.471 20.125 201.861 19.92 201.091 19.86C200.341 19.81 199.736 19.91 199.276 20.16C198.826 20.41 198.601 20.77 198.601 21.24C198.601 21.52 198.696 21.755 198.886 21.945C199.086 22.135 199.491 22.33 200.101 22.53C200.721 22.73 201.661 22.99 202.921 23.31C204.151 23.63 205.136 24.005 205.876 24.435C206.626 24.855 207.171 25.365 207.511 25.965C207.851 26.555 208.021 27.27 208.021 28.11C208.021 29.77 207.421 31.075 206.221 32.025C205.021 32.975 203.361 33.45 201.241 33.45Z" fill="#333030"/>
<rect x="0.675781" y="0.675812" width="47.3936" height="47.3936" rx="12" fill="#1552FD"/>
<g clip-path="url(#clip0_2011_393)">
<path d="M11.4517 24.0842C11.4517 24.6791 11.9339 25.1613 12.5288 25.1613H15.7602C16.3551 25.1613 16.8373 24.6791 16.8373 24.0842L16.8373 21.5331C16.8373 21.1046 17.0076 20.6936 17.3106 20.3906L20.4447 17.2564C20.7477 16.9534 21.1587 16.7832 21.5872 16.7832L24.1383 16.7832C24.7332 16.7832 25.2154 16.301 25.2154 15.7061L25.2154 12.4747C25.2154 11.8798 24.7332 11.3976 24.1383 11.3976L20.9069 11.3976C20.312 11.3976 19.8298 11.8798 19.8298 12.4747L19.8298 14.9172C19.8298 15.3457 19.6596 15.7567 19.3566 16.0597L16.1138 19.3024C15.8108 19.6054 15.3998 19.7757 14.9713 19.7757L12.5288 19.7757C11.9339 19.7757 11.4517 20.2579 11.4517 20.8528L11.4517 24.0842Z" fill="white"/>
<path d="M28.9041 18.6873C28.9041 19.2822 29.3864 19.7644 29.9813 19.7644L35.3669 19.7644C35.9618 19.7644 36.444 19.2822 36.444 18.6873V13.3017C36.444 12.7068 35.9618 12.2245 35.3669 12.2245L29.9813 12.2245C29.3864 12.2245 28.9041 12.7068 28.9041 13.3017V18.6873Z" fill="white"/>
<path d="M24.7151 37.3476C24.1202 37.3476 23.638 36.8653 23.638 36.2705L23.638 33.0391C23.638 32.4442 24.1202 31.962 24.7151 31.962L27.1576 31.962C27.5861 31.962 27.9971 31.7917 28.3001 31.4887L31.5428 28.246C31.8458 27.943 32.0161 27.532 32.0161 27.1035L32.0161 24.661C32.0161 24.0661 32.4983 23.5839 33.0932 23.5839L36.3246 23.5839C36.9195 23.5839 37.4017 24.0661 37.4017 24.661L37.4017 27.8924C37.4017 28.4873 36.9195 28.9695 36.3246 28.9695L33.7735 28.9695C33.345 28.9695 32.934 29.1397 32.631 29.4427L29.4969 32.5769C29.1939 32.8799 29.0236 33.2909 29.0236 33.7194L29.0236 36.2705C29.0236 36.8653 28.5414 37.3476 27.9465 37.3476L24.7151 37.3476Z" fill="white"/>
<path d="M12.148 35.4435C12.148 36.0384 12.6303 36.5206 13.2251 36.5206L18.6108 36.5206C19.2056 36.5206 19.6879 36.0384 19.6879 35.4435V30.869C19.6879 30.4405 19.8581 30.0296 20.1611 29.7266L21.2392 28.6485C21.5422 28.3455 21.9532 28.1752 22.3817 28.1752L27.0327 28.1752C27.6276 28.1752 28.1099 27.693 28.1099 27.0981V21.7125C28.1099 21.1176 27.6276 20.6354 27.0327 20.6354L21.6471 20.6354C21.0522 20.6354 20.57 21.1176 20.57 21.7125L20.57 26.3635C20.57 26.792 20.3998 27.203 20.0968 27.506L19.0953 28.5075C18.7923 28.8105 18.3813 28.9807 17.9528 28.9807L13.2251 28.9807C12.6303 28.9807 12.148 29.463 12.148 30.0579L12.148 35.4435Z" fill="white"/>
</g>
<defs>
<clipPath id="clip0_2011_393">
<rect width="34.468" height="34.468" fill="white" transform="translate(0 24.3726) rotate(-45)"/>
</clipPath>
</defs>
</svg>
